<svg width="50" height="50" viewBox="0 0 50 50" fill="none" xmlns="http://www.w3.org/2000/svg">
<path fill-rule="evenodd" clip-rule="evenodd" d="M25 50C38.8071 50 50 38.8071 50 25C50 11.1929 38.8071 0 25 0C11.1929 0 0 11.1929 0 25C0 38.8071 11.1929 50 25 50Z" fill="#FF8E8E"/>
<path fill-rule="evenodd" clip-rule="evenodd" d="M33.3568 17.5282C32.3854 16.5073 31.1092 16 29.8399 16C28.5637 16 27.2882 16.5073 26.3173 17.5282L25.4438 18.4448C25.2007 18.6997 24.806 18.7003 24.5623 18.4458L23.6848 17.5282C22.7072 16.5073 21.4372 16 20.1611 16C18.8855 16 17.6156 16.5073 16.6386 17.5282C14.4538 19.8108 14.4538 23.5172 16.6386 25.8061L17.5161 26.7226L24.1179 33.6191C24.6041 34.1269 25.3918 34.1269 25.8775 33.6196L32.4855 26.7226L33.3568 25.8061C35.5477 23.5172 35.5477 19.8108 33.3568 17.5282Z" stroke="white" stroke-width="3"/>
</svg>
