<svg width="31" height="31" viewBox="0 0 31 31" fill="none" xmlns="http://www.w3.org/2000/svg">
<path fill-rule="evenodd" clip-rule="evenodd" d="M30 15.5C30 23.5085 23.5085 30 15.5 30C7.49147 30 1 23.5085 1 15.5C1 7.49147 7.49147 1 15.5 1C23.5085 1 30 7.49147 30 15.5Z" stroke="#B4B4B4" stroke-linecap="round" stroke-linejoin="round"/>
<path fill-rule="evenodd" clip-rule="evenodd" d="M11.5 17C12.3284 17 13 16.3284 13 15.5C13 14.6716 12.3284 14 11.5 14C10.6716 14 10 14.6716 10 15.5C10 16.3284 10.6716 17 11.5 17Z" fill="#B4B4B4"/>
<path fill-rule="evenodd" clip-rule="evenodd" d="M15.5 17C16.3284 17 17 16.3284 17 15.5C17 14.6716 16.3284 14 15.5 14C14.6716 14 14 14.6716 14 15.5C14 16.3284 14.6716 17 15.5 17Z" fill="#B4B4B4"/>
<path fill-rule="evenodd" clip-rule="evenodd" d="M19.5 17C20.3284 17 21 16.3284 21 15.5C21 14.6716 20.3284 14 19.5 14C18.6716 14 18 14.6716 18 15.5C18 16.3284 18.6716 17 19.5 17Z" fill="#B4B4B4"/>
</svg>
