<svg width="50" height="50" viewBox="0 0 50 50" fill="none" xmlns="http://www.w3.org/2000/svg">
<path fill-rule="evenodd" clip-rule="evenodd" d="M25 50C38.8071 50 50 38.8071 50 25C50 11.1929 38.8071 0 25 0C11.1929 0 0 11.1929 0 25C0 38.8071 11.1929 50 25 50Z" fill="#71C6FF"/>
<path d="M17 18V31.1252C17 32.1603 17.7961 33 18.778 33H25" stroke="white" stroke-width="3" stroke-linecap="round"/>
<path d="M13 22L16.9998 18L21 22" stroke="white" stroke-width="3" stroke-linecap="round" stroke-linejoin="round"/>
<path d="M33 33V19.8748C33 18.8397 32.2039 18 31.2224 18H25" stroke="white" stroke-width="3" stroke-linecap="round"/>
<path d="M37 29L33 33L29 29" stroke="white" stroke-width="3" stroke-linecap="round" stroke-linejoin="round"/>
</svg>
